<?xml version="1.0" encoding="utf-8"?>
<!-- Generator: Adobe Illustrator 22.0.0, SVG Export Plug-In . SVG Version: 6.00 Build 0)  -->
<svg version="1.1" xmlns="http://www.w3.org/2000/svg" xmlns:xlink="http://www.w3.org/1999/xlink" x="0px" y="0px"
	 viewBox="0 0 256 256" style="enable-background:new 0 0 256 256;" xml:space="preserve">
<style type="text/css">
	.st0{display:none;}
	.st1{display:inline;}
	.st2{fill:none;stroke:#6B1D1D;stroke-width:0.5;stroke-miterlimit:10;}
	.st3{fill:#3A312A;}
	.st4{fill:#87796F;}
	.st5{fill:#D5DE58;}
	.st6{fill:#695B51;}
	.st7{fill:#FCE8CB;}
	.st8{fill:#F16C7A;}
	.st9{fill:#8AC6DD;}
	.st10{fill:#DECAAD;}
	.st11{fill:#D6DF58;}
	.st12{fill-rule:evenodd;clip-rule:evenodd;fill:#FCE8CB;}
	.st13{fill:#F5978A;}
	.st14{fill:#D7E057;}
	.st15{fill-rule:evenodd;clip-rule:evenodd;fill:#87796F;}
	.st16{fill:#6CA8BF;}
	.st17{fill:#B9C239;}
	.st18{fill:#D34E5C;}
	.st19{fill:#FAE6CA;}
	.st20{fill:#F8E4C8;}
	.st21{fill:#8AC5DC;}
	.st22{fill:#EF6D7A;}
	.st23{fill:#EB6E7A;}
	.st24{fill:#89C4DB;}
	.st25{fill-rule:evenodd;clip-rule:evenodd;fill:#F16C7A;}
	.st26{fill:#F7E3C7;}
	.st27{fill:#F6E2C6;}
	.st28{fill:#ED6E7A;}
	.st29{fill:#8AC3DA;}
	.st30{fill:#D5DC57;}
	.st31{fill-rule:evenodd;clip-rule:evenodd;fill:#D7E057;}
	.st32{fill-rule:evenodd;clip-rule:evenodd;fill:#F8E4C8;}
	.st33{fill:#D4DB56;}
	.st34{fill:#F59689;}
	.st35{fill:#DDC9AC;}
	.st36{fill:#D24E5C;}
	.st37{fill:#6A5C52;}
	.st38{fill:#6CA6BE;}
	.st39{fill:#B8C136;}
	.st40{fill-rule:evenodd;clip-rule:evenodd;fill:#FAE6CA;}
</style>
<g id="Layer_2" class="st0">
	<g class="st1">
		<g>
			<line class="st2" x1="0" y1="4.829" x2="256" y2="4.829"/>
			<line class="st2" x1="0" y1="16.56" x2="256" y2="16.56"/>
			<line class="st2" x1="0" y1="28.29" x2="256" y2="28.29"/>
			<line class="st2" x1="0" y1="40.021" x2="256" y2="40.021"/>
			<line class="st2" x1="0" y1="51.751" x2="256" y2="51.751"/>
			<line class="st2" x1="0" y1="63.482" x2="256" y2="63.482"/>
			<line class="st2" x1="0" y1="75.213" x2="256" y2="75.213"/>
			<line class="st2" x1="0" y1="86.943" x2="256" y2="86.943"/>
			<line class="st2" x1="0" y1="98.674" x2="256" y2="98.674"/>
			<line class="st2" x1="0" y1="110.404" x2="256" y2="110.404"/>
			<line class="st2" x1="0" y1="122.135" x2="256" y2="122.135"/>
			<line class="st2" x1="0" y1="133.865" x2="256" y2="133.865"/>
			<line class="st2" x1="0" y1="145.596" x2="256" y2="145.596"/>
			<line class="st2" x1="0" y1="157.326" x2="256" y2="157.326"/>
			<line class="st2" x1="0" y1="169.057" x2="256" y2="169.057"/>
			<line class="st2" x1="0" y1="180.788" x2="256" y2="180.788"/>
			<line class="st2" x1="0" y1="192.518" x2="256" y2="192.518"/>
			<line class="st2" x1="0" y1="204.249" x2="256" y2="204.249"/>
			<line class="st2" x1="0" y1="215.979" x2="256" y2="215.979"/>
			<line class="st2" x1="0" y1="227.71" x2="256" y2="227.71"/>
			<line class="st2" x1="0" y1="239.44" x2="256" y2="239.44"/>
			<line class="st2" x1="0" y1="251.171" x2="256" y2="251.171"/>
		</g>
		<g>
			<line class="st2" x1="251.171" y1="0" x2="251.171" y2="256"/>
			<line class="st2" x1="239.44" y1="0" x2="239.44" y2="256"/>
			<line class="st2" x1="227.71" y1="0" x2="227.71" y2="256"/>
			<line class="st2" x1="215.979" y1="0" x2="215.979" y2="256"/>
			<line class="st2" x1="204.249" y1="0" x2="204.249" y2="256"/>
			<line class="st2" x1="192.518" y1="0" x2="192.518" y2="256"/>
			<line class="st2" x1="180.788" y1="0" x2="180.788" y2="256"/>
			<line class="st2" x1="169.057" y1="0" x2="169.057" y2="256"/>
			<line class="st2" x1="157.326" y1="0" x2="157.326" y2="256"/>
			<line class="st2" x1="145.596" y1="0" x2="145.596" y2="256"/>
			<line class="st2" x1="133.865" y1="0" x2="133.865" y2="256"/>
			<line class="st2" x1="122.135" y1="0" x2="122.135" y2="256"/>
			<line class="st2" x1="110.404" y1="0" x2="110.404" y2="256"/>
			<line class="st2" x1="98.674" y1="0" x2="98.674" y2="256"/>
			<line class="st2" x1="86.943" y1="0" x2="86.943" y2="256"/>
			<line class="st2" x1="75.213" y1="0" x2="75.213" y2="256"/>
			<line class="st2" x1="63.482" y1="0" x2="63.482" y2="256"/>
			<line class="st2" x1="51.751" y1="0" x2="51.751" y2="256"/>
			<line class="st2" x1="40.021" y1="0" x2="40.021" y2="256"/>
			<line class="st2" x1="28.29" y1="0" x2="28.29" y2="256"/>
			<line class="st2" x1="16.56" y1="0" x2="16.56" y2="256"/>
			<line class="st2" x1="4.829" y1="0" x2="4.829" y2="256"/>
		</g>
	</g>
</g>
<g id="Layer_1">
	<g>
		<path class="st14" d="M226.35,26.334c0,0,3.408,12.659,13.222,13.246c0,0-13.1,4.525-13.321,14.202
			c0,0-2.579-13.572-12.925-14.059C213.325,39.723,225.376,37.898,226.35,26.334z"/>
		<path class="st3" d="M226.249,55.282c-0.713,0-1.335-0.506-1.473-1.217c-0.023-0.124-2.494-12.417-11.521-12.842
			c-0.77-0.037-1.388-0.651-1.428-1.421c-0.04-0.771,0.511-1.445,1.273-1.561c0.441-0.069,10.895-1.818,11.754-12.033
			c0.061-0.725,0.635-1.301,1.359-1.367c0.731-0.058,1.394,0.399,1.584,1.102c0.031,0.116,3.259,11.626,11.863,12.141
			c0.714,0.043,1.298,0.584,1.395,1.292c0.098,0.708-0.318,1.388-0.994,1.623c-0.121,0.042-12.118,4.31-12.312,12.819
			c-0.018,0.767-0.611,1.396-1.375,1.46C226.333,55.28,226.291,55.282,226.249,55.282z M218.508,39.552
			c3.878,1.969,6.23,5.746,7.587,8.876c2.026-4.021,5.942-6.787,8.949-8.427c-4.134-1.842-6.783-5.651-8.334-8.723
			C224.917,35.639,221.439,38.147,218.508,39.552z"/>
		<path class="st14" d="M204.651,43.314c0,0,2.411,8.954,9.352,9.369c0,0-9.266,3.201-9.422,10.046c0,0-1.824-9.6-9.142-9.944
			C195.438,52.785,203.962,51.494,204.651,43.314z"/>
		<path class="st3" d="M204.579,64.229c-0.714,0-1.337-0.507-1.473-1.22c-0.016-0.082-1.703-8.442-7.738-8.726
			c-0.77-0.037-1.388-0.651-1.428-1.421c-0.04-0.771,0.511-1.445,1.273-1.561c0.296-0.047,7.363-1.243,7.941-8.114
			c0.061-0.726,0.636-1.303,1.361-1.368c0.721-0.06,1.392,0.399,1.581,1.102l0,0c0.022,0.079,2.229,7.919,7.995,8.264
			c0.714,0.043,1.299,0.584,1.396,1.293c0.097,0.709-0.32,1.388-0.996,1.622c-0.081,0.028-8.282,2.953-8.413,8.663
			c-0.018,0.767-0.612,1.397-1.377,1.46C204.662,64.228,204.62,64.229,204.579,64.229z M200.061,52.702
			c2.107,1.333,3.523,3.395,4.447,5.28c1.376-2.233,3.515-3.872,5.365-4.973c-2.287-1.269-3.885-3.35-4.942-5.224
			C203.758,50.072,201.916,51.661,200.061,52.702z"/>
		<path class="st14" d="M204.651,16.657c0,0,2.411,8.954,9.352,9.369c0,0-9.266,3.201-9.422,10.045c0,0-1.824-9.6-9.142-9.944
			C195.438,26.128,203.962,24.836,204.651,16.657z"/>
		<path class="st3" d="M204.579,37.572c-0.714,0-1.337-0.507-1.473-1.22c-0.016-0.082-1.703-8.441-7.738-8.726
			c-0.77-0.037-1.388-0.651-1.428-1.421c-0.04-0.77,0.511-1.445,1.273-1.561c0.296-0.047,7.363-1.243,7.941-8.113
			c0.061-0.726,0.636-1.303,1.361-1.368c0.721-0.059,1.392,0.399,1.581,1.102l0,0c0.022,0.079,2.229,7.919,7.995,8.264
			c0.714,0.043,1.299,0.585,1.396,1.294c0.097,0.709-0.32,1.388-0.996,1.622c-0.081,0.028-8.282,2.952-8.413,8.662
			c-0.018,0.767-0.611,1.397-1.377,1.46C204.662,37.57,204.62,37.572,204.579,37.572z M200.061,26.044
			c2.107,1.333,3.523,3.394,4.447,5.28c1.376-2.232,3.515-3.872,5.364-4.973c-2.286-1.269-3.884-3.35-4.941-5.224
			C203.758,23.415,201.916,25.003,200.061,26.044z"/>
		<path class="st4" d="M16.428,123.691v98.703c0,9.447,7.658,17.105,17.105,17.105h130.289c9.447,0,17.105-7.658,17.105-17.105
			V33.605c0-9.447-7.658-17.105-17.105-17.105H33.534c-9.447,0-17.105,7.658-17.105,17.105v76.037V123.691z"/>
		<path class="st3" d="M163.823,241H33.534c-10.259,0-18.605-8.346-18.605-18.605v-98.703c0-0.829,0.672-1.5,1.5-1.5
			c0.828,0,1.5,0.671,1.5,1.5v98.703C17.929,231,24.93,238,33.534,238h130.289c8.605,0,15.605-7,15.605-15.605V33.605
			C179.429,25,172.428,18,163.823,18H33.534c-8.604,0-15.605,7-15.605,15.605v76.037c0,0.829-0.672,1.5-1.5,1.5
			c-0.828,0-1.5-0.671-1.5-1.5V33.605C14.929,23.346,23.275,15,33.534,15h130.289c10.259,0,18.605,8.346,18.605,18.605v188.789
			C182.429,232.654,174.082,241,163.823,241z"/>
		<path class="st9" d="M88.442,32.5H38.439c-4.194,0-7.594,3.4-7.594,7.594v158.811c0,4.194,3.4,7.594,7.594,7.594h120.478
			c4.194,0,7.594-3.4,7.594-7.594V40.094c0-4.194-3.4-7.594-7.594-7.594h-57.001H88.442z"/>
		<path class="st3" d="M158.917,208H38.439c-5.015,0-9.095-4.08-9.095-9.094V40.094c0-5.015,4.08-9.094,9.095-9.094h50.002
			c0.828,0,1.5,0.671,1.5,1.5c0,0.829-0.672,1.5-1.5,1.5H38.439c-3.36,0-6.095,2.734-6.095,6.094v158.812
			c0,3.36,2.734,6.094,6.095,6.094h120.478c3.36,0,6.095-2.734,6.095-6.094V40.094c0-3.36-2.734-6.094-6.095-6.094h-57.001
			c-0.828,0-1.5-0.671-1.5-1.5c0-0.829,0.672-1.5,1.5-1.5h57.001c5.015,0,9.095,4.08,9.095,9.094v158.812
			C168.012,203.92,163.932,208,158.917,208z"/>
		<circle class="st8" cx="98.178" cy="223.5" r="8"/>
		<path class="st3" d="M98.179,233c-5.238,0-9.5-4.262-9.5-9.5c0-5.238,4.262-9.5,9.5-9.5c5.238,0,9.5,4.262,9.5,9.5
			C107.679,228.738,103.417,233,98.179,233z M98.179,217c-3.584,0-6.5,2.916-6.5,6.5s2.916,6.5,6.5,6.5s6.5-2.916,6.5-6.5
			S101.763,217,98.179,217z"/>
		<circle class="st7" cx="120.227" cy="162.485" r="37.098"/>
		<path class="st3" d="M120.228,201.084c-21.283,0-38.599-17.315-38.599-38.598c0-21.283,17.315-38.599,38.599-38.599
			s38.599,17.315,38.599,38.599C158.826,183.769,141.511,201.084,120.228,201.084z M120.228,126.887
			c-19.629,0-35.599,15.97-35.599,35.599c0,19.629,15.97,35.598,35.599,35.598s35.599-15.969,35.599-35.598
			C155.826,142.856,139.856,126.887,120.228,126.887z"/>
		<path class="st4" d="M139.429,159.874v13.994c0,1.966-1.592,3.559-3.559,3.559h-31.287c-1.966,0-3.559-1.592-3.559-3.559v-13.994
			l19.202,9.767L139.429,159.874z"/>
		<path class="st3" d="M135.871,178.927h-31.287c-2.789,0-5.059-2.269-5.059-5.059v-13.995c0-0.521,0.271-1.006,0.716-1.279
			c0.445-0.272,0.999-0.295,1.464-0.058l18.522,9.42l18.522-9.42c0.464-0.237,1.018-0.214,1.464,0.058
			c0.444,0.273,0.716,0.757,0.716,1.279v13.995C140.93,176.658,138.66,178.927,135.871,178.927z M102.525,162.319v11.549
			c0,1.135,0.924,2.059,2.059,2.059h31.287c1.135,0,2.059-0.923,2.059-2.059v-11.549l-17.022,8.658
			c-0.426,0.218-0.934,0.218-1.359,0L102.525,162.319z"/>
		<path class="st22" d="M145.116,156.985v17.898c-0.74-0.951-1.741-1.536-2.847-1.536c-1.099,0-2.1,0.585-2.84,1.536v-15.009
			L145.116,156.985z"/>
		<path class="st3" d="M145.116,176.383c-0.454,0-0.893-0.207-1.184-0.579c-0.278-0.358-0.864-0.958-1.664-0.958
			c-0.793,0-1.377,0.599-1.654,0.956c-0.395,0.507-1.067,0.706-1.671,0.499c-0.607-0.208-1.014-0.778-1.014-1.419v-15.009
			c0-0.565,0.317-1.082,0.82-1.337l5.686-2.889c0.464-0.236,1.02-0.214,1.464,0.059c0.445,0.272,0.716,0.757,0.716,1.278v17.898
			c0,0.641-0.407,1.211-1.013,1.419C145.443,176.356,145.279,176.383,145.116,176.383z M142.269,171.847
			c0.461,0,0.913,0.067,1.348,0.199v-12.616l-2.686,1.365v11.25C141.362,171.914,141.811,171.847,142.269,171.847z"/>
		<polygon class="st4" points="120.227,140.251 91.337,154.945 120.227,169.64 149.118,154.945 		"/>
		<path class="st3" d="M120.228,171.14c-0.233,0-0.467-0.054-0.68-0.163l-28.891-14.694c-0.504-0.256-0.82-0.772-0.82-1.337
			c0-0.564,0.316-1.081,0.82-1.337l28.891-14.695c0.426-0.218,0.934-0.218,1.359,0l28.891,14.695c0.504,0.256,0.82,0.772,0.82,1.337
			c0,0.564-0.316,1.081-0.82,1.337l-28.891,14.694C120.694,171.085,120.461,171.14,120.228,171.14z M94.646,154.945l25.582,13.011
			l25.582-13.011l-25.582-13.012L94.646,154.945z"/>
		<ellipse class="st22" cx="142.271" cy="179.034" rx="4.163" ry="5.686"/>
		<path class="st3" d="M142.271,186.22c-3.176,0-5.663-3.156-5.663-7.186s2.487-7.186,5.663-7.186s5.663,3.156,5.663,7.186
			S145.447,186.22,142.271,186.22z M142.271,174.848c-1.443,0-2.663,1.917-2.663,4.186c0,2.269,1.22,4.186,2.663,4.186
			c1.443,0,2.663-1.917,2.663-4.186C144.935,176.765,143.715,174.848,142.271,174.848z"/>
		
			<ellipse transform="matrix(0.3827 -0.9239 0.9239 0.3827 -25.868 128.4828)" class="st7" cx="83.21" cy="83.599" rx="37.098" ry="37.099"/>
		<path class="st3" d="M83.21,122.197c-21.283,0-38.599-17.315-38.599-38.598C44.611,62.315,61.927,45,83.21,45
			s38.599,17.315,38.599,38.599C121.809,104.882,104.493,122.197,83.21,122.197z M83.21,48c-19.629,0-35.599,15.97-35.599,35.599
			c0,19.629,15.97,35.598,35.599,35.598s35.599-15.969,35.599-35.598C118.809,63.97,102.839,48,83.21,48z"/>
		<path class="st3" d="M83.21,62.693c-0.828,0-1.5-0.671-1.5-1.5v-3.203c0-0.829,0.672-1.5,1.5-1.5c0.828,0,1.5,0.671,1.5,1.5v3.203
			C84.71,62.022,84.038,62.693,83.21,62.693z"/>
		<path class="st3" d="M96.62,67.146c-0.312,0-0.627-0.097-0.896-0.298c-0.664-0.495-0.801-1.435-0.306-2.099l1.915-2.567
			c0.495-0.665,1.437-0.801,2.099-0.305c0.664,0.495,0.801,1.435,0.306,2.099l-1.915,2.567
			C97.529,66.937,97.077,67.146,96.62,67.146z"/>
		<path class="st3" d="M104.707,78.733c-0.646,0-1.243-0.422-1.437-1.073c-0.236-0.795,0.216-1.629,1.011-1.865l3.07-0.912
			c0.796-0.236,1.629,0.217,1.864,1.011c0.236,0.794-0.216,1.629-1.011,1.865l-3.07,0.912
			C104.992,78.713,104.849,78.733,104.707,78.733z"/>
		<path class="st3" d="M107.266,93.962c-0.172,0-0.347-0.03-0.518-0.093l-3.006-1.105c-0.777-0.286-1.176-1.148-0.891-1.925
			c0.286-0.778,1.146-1.177,1.926-0.89l3.006,1.105c0.777,0.286,1.176,1.148,0.891,1.925
			C108.45,93.586,107.876,93.962,107.266,93.962z"/>
		<path class="st3" d="M69.8,67.146c-0.457,0-0.909-0.209-1.203-0.603l-1.915-2.567c-0.495-0.664-0.358-1.604,0.306-2.099
			c0.661-0.495,1.604-0.359,2.099,0.305l1.915,2.567c0.495,0.664,0.358,1.604-0.306,2.099C70.427,67.049,70.112,67.146,69.8,67.146z
			"/>
		<path class="st3" d="M61.713,78.733c-0.142,0-0.286-0.02-0.429-0.062l-3.069-0.912c-0.794-0.236-1.246-1.071-1.01-1.865
			c0.236-0.794,1.072-1.247,1.865-1.011l3.069,0.912c0.794,0.236,1.246,1.071,1.01,1.865C62.956,78.312,62.359,78.733,61.713,78.733
			z"/>
		<path class="st3" d="M59.154,93.962c-0.61,0-1.185-0.376-1.408-0.983c-0.285-0.777,0.113-1.64,0.891-1.925l3.006-1.105
			c0.779-0.286,1.64,0.112,1.926,0.89c0.285,0.777-0.113,1.64-0.891,1.925l-3.006,1.105C59.501,93.932,59.326,93.962,59.154,93.962z
			"/>
		<path class="st14" d="M98.206,83.109c0,3.807-1.414,7.27-3.753,9.917c-2.203,2.493-3.608,5.566-4.188,8.829H76.151
			c-0.58-3.263-1.976-6.336-4.188-8.838c-2.33-2.638-3.753-6.11-3.753-9.908c0-7.886,6.318-14.558,14.186-14.975
			C91.045,67.681,98.206,74.561,98.206,83.109z"/>
		<path class="st3" d="M90.265,103.355H76.151c-0.728,0-1.35-0.521-1.477-1.237c-0.549-3.086-1.875-5.89-3.836-8.107
			c-2.662-3.015-4.128-6.886-4.128-10.901c0-8.627,7.001-16.017,15.606-16.473c4.574-0.239,8.928,1.361,12.245,4.508
			c3.316,3.148,5.144,7.397,5.144,11.965c0,4.022-1.467,7.897-4.129,10.91c-1.962,2.22-3.289,5.021-3.836,8.099
			C91.614,102.834,90.992,103.355,90.265,103.355z M77.369,100.355h11.678c0.756-3.136,2.223-5.992,4.282-8.322
			c2.178-2.465,3.377-5.634,3.377-8.924c0-3.737-1.494-7.213-4.209-9.789c-2.714-2.575-6.271-3.885-10.022-3.688
			c-7.037,0.373-12.764,6.419-12.764,13.477c0,3.283,1.199,6.449,3.376,8.915C75.146,94.352,76.612,97.212,77.369,100.355z"/>
		<path class="st4" d="M76.503,101.858h13.413c1.68,0,3.042,1.362,3.042,3.042v1.264c0,1.68-1.362,3.042-3.042,3.042H76.503
			c-1.68,0-3.042-1.362-3.042-3.042V104.9C73.462,103.22,74.824,101.858,76.503,101.858z"/>
		<path class="st3" d="M89.917,110.707H76.503c-2.504,0-4.541-2.038-4.541-4.542V104.9c0-2.504,2.037-4.542,4.541-4.542h13.414
			c2.504,0,4.541,2.038,4.541,4.542v1.264C94.458,108.669,92.421,110.707,89.917,110.707z M76.503,103.358
			c-0.85,0-1.541,0.692-1.541,1.542v1.264c0,0.85,0.691,1.542,1.541,1.542h13.414c0.85,0,1.541-0.692,1.541-1.542V104.9
			c0-0.85-0.691-1.542-1.541-1.542H76.503z"/>
		<circle class="st7" cx="190.157" cy="110.813" r="37.099"/>
		<path class="st3" d="M190.157,149.411c-21.283,0-38.599-17.315-38.599-38.599s17.315-38.598,38.599-38.598
			s38.598,17.315,38.598,38.598S211.44,149.411,190.157,149.411z M190.157,75.214c-19.629,0-35.599,15.969-35.599,35.598
			s15.97,35.599,35.599,35.599s35.598-15.97,35.598-35.599S209.786,75.214,190.157,75.214z"/>
		<polygon class="st8" points="217.12,127.426 190.157,131.854 163.194,127.426 163.194,93.771 190.157,98.199 217.12,93.771 		"/>
		<path class="st3" d="M190.157,133.355c-0.081,0-0.162-0.007-0.243-0.02l-26.964-4.428c-0.725-0.119-1.257-0.746-1.257-1.48V93.771
			c0-0.44,0.193-0.858,0.529-1.144c0.335-0.285,0.778-0.411,1.214-0.336l26.721,4.388l26.72-4.388
			c0.437-0.072,0.879,0.051,1.214,0.336c0.336,0.285,0.529,0.703,0.529,1.144v33.655c0,0.734-0.532,1.361-1.257,1.48l-26.963,4.428
			C190.32,133.348,190.238,133.355,190.157,133.355z M164.693,126.152l25.464,4.182l25.463-4.182V95.538l-25.22,4.142
			c-0.16,0.026-0.324,0.026-0.486,0l-25.221-4.142V126.152z M217.12,127.426h0.01H217.12z"/>
		<path class="st3" d="M190.157,133.355c-0.828,0-1.5-0.671-1.5-1.5V98.199c0-0.829,0.672-1.5,1.5-1.5c0.828,0,1.5,0.671,1.5,1.5
			v33.655C191.657,132.683,190.985,133.355,190.157,133.355z"/>
		<path class="st16" d="M165.014,81.57V40.09c0-3.36-2.74-6.09-6.1-6.09h-15c3.36,0,6.1,2.73,6.1,6.09v41.48
			c-8.23,7.08-13.45,17.56-13.45,29.24c0,7.28,2.03,14.09,5.54,19.9c10.1,6.96,16.72,18.61,16.72,31.78c0,9.3-3.31,17.85-8.81,24.51
			v11.91c0,3.36-2.74,6.09-6.1,6.09h15c3.36,0,6.1-2.73,6.1-6.09v-58.85c-8.23-7.08-13.45-17.56-13.45-29.25
			C151.563,99.13,156.783,88.65,165.014,81.57z"/>
	</g>
</g>
</svg>
